<svg width="1423" height="423" viewBox="0 0 1423 423" fill="none" xmlns="http://www.w3.org/2000/svg">
<path d="M541.696 87.8877C558.34 87.8878 573.366 91.0177 586.773 97.2771C600.18 103.537 611.161 111.651 619.714 121.619L588.507 152.917C581.341 145.035 573.943 139.239 566.315 135.529C558.918 131.82 550.48 129.966 541.002 129.966C530.138 129.966 521.584 132.052 515.343 136.225C509.101 140.398 505.98 146.426 505.98 154.308C505.98 161.031 508.062 166.48 512.223 170.652C516.383 174.825 521.816 178.419 528.519 181.432C535.454 184.446 542.967 187.344 551.057 190.126C559.379 192.908 567.586 196.038 575.677 199.515C583.999 202.993 591.512 207.513 598.216 213.077C605.15 218.641 610.698 225.828 614.859 234.638C619.02 243.215 621.1 253.88 621.1 266.631C621.1 289.35 613.126 307.202 597.176 320.184C581.225 333.167 559.38 339.658 531.64 339.658C511.991 339.658 495.116 336.295 481.015 329.573C467.146 322.849 454.546 312.765 443.219 299.319L474.427 268.022C481.593 277.527 489.915 284.945 499.393 290.277C508.87 295.377 520.429 297.928 534.067 297.928C546.319 297.928 556.028 295.494 563.194 290.626C570.591 285.757 574.29 279.033 574.29 270.455C574.29 263.037 572.209 257.01 568.048 252.373C563.888 247.737 558.339 243.795 551.405 240.549C544.701 237.304 537.188 234.406 528.866 231.856C520.776 229.074 512.568 225.944 504.247 222.466C496.156 218.989 488.643 214.7 481.708 209.599C475.005 204.267 469.573 197.544 465.412 189.43C461.251 181.084 459.17 170.652 459.17 158.133C459.17 143.296 462.753 130.661 469.919 120.229C477.085 109.797 486.91 101.798 499.393 96.234C511.876 90.6702 525.977 87.8877 541.696 87.8877Z" fill="#251E19"/>
<path fill-rule="evenodd" clip-rule="evenodd" d="M722.153 164.741C734.173 164.741 744.923 167.175 754.401 172.043C760.702 175.28 766.134 179.389 770.698 184.368V168.218H815.775V336.18H770.698V319.875C766.134 324.803 760.702 328.964 754.401 332.355C744.923 337.224 734.173 339.657 722.153 339.658C706.897 339.658 693.142 335.832 680.89 328.182C668.638 320.532 659.045 310.099 652.11 296.885C645.175 283.67 641.708 268.833 641.708 252.373C641.708 235.681 645.175 220.728 652.11 207.513C659.045 194.299 668.638 183.866 680.89 176.216C693.142 168.566 706.897 164.741 722.153 164.741ZM730.475 206.818C722.153 206.818 714.756 208.789 708.283 212.73C702.042 216.439 697.071 221.771 693.373 228.726C689.905 235.449 688.171 243.215 688.171 252.025C688.171 261.066 689.905 269.065 693.373 276.02C697.071 282.743 702.042 288.075 708.283 292.016C714.756 295.725 722.153 297.58 730.475 297.58C743.188 297.58 753.476 293.407 761.335 285.061C769.195 276.483 773.124 265.471 773.124 252.025C773.124 243.215 771.275 235.449 767.577 228.726C764.109 221.771 759.139 216.439 752.667 212.73C746.425 208.789 739.027 206.818 730.475 206.818Z" fill="#251E19"/>
<path fill-rule="evenodd" clip-rule="evenodd" d="M1214.33 336.18H1169.25V320.918C1164.86 325.272 1159.78 328.969 1154 332.007C1144.29 337.107 1133.42 339.658 1121.4 339.658C1105.91 339.658 1092.04 335.832 1079.79 328.182C1067.54 320.532 1057.83 310.099 1050.67 296.885C1043.73 283.67 1040.26 268.833 1040.26 252.373C1040.26 235.681 1043.73 220.728 1050.67 207.513C1057.83 194.299 1067.42 183.866 1079.45 176.216C1091.7 168.566 1105.68 164.741 1121.4 164.741C1133.42 164.741 1144.17 167.174 1153.65 172.043C1159.43 174.942 1164.52 178.542 1168.91 182.839V84.7585H1214.33V336.18ZM1129.38 206.818C1120.82 206.818 1113.31 208.789 1106.84 212.73C1100.6 216.671 1095.63 222.003 1091.93 228.726C1088.46 235.449 1086.73 243.215 1086.73 252.025C1086.73 261.066 1088.46 269.065 1091.93 276.02C1095.63 282.743 1100.71 288.075 1107.19 292.016C1113.66 295.725 1120.94 297.58 1129.03 297.58C1137.58 297.58 1144.98 295.725 1151.22 292.016C1157.69 288.075 1162.66 282.743 1166.13 276.02C1169.83 269.065 1171.68 261.066 1171.68 252.025C1171.68 243.215 1169.83 235.449 1166.13 228.726C1162.66 221.771 1157.69 216.439 1151.22 212.73C1144.98 208.789 1137.7 206.818 1129.38 206.818Z" fill="#251E19"/>
<path fill-rule="evenodd" clip-rule="evenodd" d="M1332.88 164.392C1349.98 164.392 1365.24 168.334 1378.65 176.216C1392.29 183.866 1403.04 194.299 1410.9 207.513C1418.76 220.496 1422.69 235.218 1422.69 251.678C1422.69 268.137 1418.76 283.09 1410.9 296.536C1403.04 309.751 1392.29 320.3 1378.65 328.182C1365.24 335.832 1350.1 339.657 1333.23 339.658C1316.35 339.658 1301.09 335.832 1287.46 328.182C1274.05 320.3 1263.3 309.751 1255.21 296.536C1247.35 283.09 1243.42 268.137 1243.42 251.678C1243.42 235.217 1247.35 220.496 1255.21 207.513C1263.07 194.299 1273.82 183.866 1287.46 176.216C1301.09 168.334 1316.24 164.392 1332.88 164.392ZM1332.88 207.166C1324.56 207.166 1317.16 209.136 1310.69 213.077C1304.22 216.786 1299.13 222.003 1295.43 228.726C1291.73 235.449 1289.88 243.215 1289.88 252.025C1289.88 260.834 1291.73 268.717 1295.43 275.672C1299.13 282.395 1304.22 287.727 1310.69 291.669C1317.16 295.378 1324.56 297.232 1332.88 297.232C1341.43 297.232 1348.95 295.378 1355.42 291.669C1362.12 287.727 1367.21 282.395 1370.67 275.672C1374.37 268.717 1376.22 260.834 1376.22 252.025C1376.22 243.215 1374.37 235.449 1370.67 228.726C1366.98 222.003 1361.89 216.786 1355.42 213.077C1348.95 209.136 1341.43 207.166 1332.88 207.166Z" fill="#251E19"/>
<path d="M949.927 164.741C962.179 164.741 973.159 167.871 982.868 174.13C992.577 180.158 1000.21 188.155 1005.75 198.124C1011.3 207.861 1014.08 218.41 1014.08 229.77V336.18H968.652V239.854C968.652 229.885 965.531 221.771 959.29 215.511C953.048 209.252 944.957 206.122 935.017 206.122C928.545 206.122 922.766 207.513 917.68 210.295C912.594 213.077 908.549 217.019 905.544 222.119C902.77 227.219 901.383 233.131 901.383 239.854V336.18H855.959V168.218H901.383V183.96C905.522 179.7 910.261 176.075 915.6 173.086C925.771 167.522 937.214 164.741 949.927 164.741Z" fill="#251E19"/>
<path d="M173.223 5.07925C182.402 -0.220264 193.712 -0.220264 202.89 5.07925L358.691 95.0302C367.87 100.33 373.524 110.124 373.524 120.723V300.626C373.524 311.224 367.87 321.018 358.691 326.318L202.89 416.269C193.712 421.569 182.402 421.569 173.223 416.269L17.4239 326.318C8.24469 321.018 2.59033 311.224 2.59033 300.626V120.723C2.59033 110.124 8.24469 100.33 17.4239 95.0302L173.223 5.07925Z" fill="url(#paint0_radial_52_249)" fill-opacity="0.3"/>
<path d="M203.412 4.1761C203.064 4.77827 202.717 5.38044 202.369 5.98262C220.582 16.6314 238.796 27.2752 257.015 37.9139C290.582 57.5157 324.159 77.1004 357.746 96.6685C366.192 101.5 371.633 111.036 371.516 120.723C371.296 180.69 371.123 240.659 370.997 300.626C371.053 310.133 365.659 319.418 357.397 324.077C305.408 353.965 253.444 383.895 201.502 413.864C193.382 418.639 182.732 418.637 174.613 413.86C122.68 383.877 70.724 353.934 18.7436 324.031C10.498 319.379 5.11901 310.112 5.17742 300.626C5.06802 240.659 4.91134 180.69 4.70738 120.723C4.59334 111.074 10.015 101.58 18.4275 96.7704C60.9682 72.0011 103.493 47.2046 146.002 22.3808C155.279 16.9641 164.554 11.5461 173.828 6.12679C182.392 1.02481 193.695 0.947193 202.369 5.98262C202.717 5.38044 203.064 4.77827 203.412 4.1761C194.169 -1.32863 181.971 -1.40626 172.618 4.03195C163.288 9.3541 153.959 14.6776 144.629 20.0023C101.877 44.4045 59.14 68.8342 16.4185 93.2911C6.74421 98.7275 0.415849 109.587 0.471475 120.723C0.267514 180.69 0.110831 240.659 0.00143372 300.626C-0.109818 311.925 6.26212 323.012 16.1023 328.605C67.9891 358.67 119.899 388.694 171.832 418.678C181.632 424.442 194.483 424.44 204.279 418.675C256.204 388.677 308.106 358.638 359.984 328.559C369.808 322.972 376.165 311.904 376.051 300.626C375.925 240.659 375.753 180.69 375.533 120.723C375.585 109.625 369.276 98.8064 359.636 93.393C325.897 74.0903 292.147 54.8043 258.389 35.5354C240.066 25.0773 221.741 14.6242 203.412 4.1761Z" fill="url(#paint1_linear_52_249)"/>
<path fill-rule="evenodd" clip-rule="evenodd" d="M188.892 66.0816C201.233 66.0815 213.876 68.7847 223.789 74.5079L308.093 123.18C317.303 128.497 323.311 136.015 324.089 144.658L324.122 145.071L324.124 145.1L324.145 145.457C324.146 145.472 324.145 145.488 324.146 145.504C324.145 145.497 324.144 145.489 324.144 145.481L324.149 145.585L324.148 145.519C324.148 145.5 324.147 145.482 324.147 145.471C324.146 145.456 324.145 145.442 324.145 145.433C324.147 145.471 324.149 145.502 324.15 145.519C324.151 145.531 324.151 145.543 324.151 145.551L324.152 145.56V145.585L324.166 146.015V146.029L324.167 146.044L324.175 146.385V146.409L324.175 146.431C324.177 146.649 324.172 146.853 324.169 146.98C324.169 147.001 324.169 147.027 324.168 147.061L324.166 147.06C324.165 147.138 324.165 147.223 324.164 147.256L324.163 147.28L324.162 147.304C324.16 147.349 324.157 147.396 324.156 147.431C324.155 147.438 324.155 147.445 324.155 147.452V275.43C324.58 285.173 318.295 293.801 308.093 299.691L301.484 303.506L301.473 303.513L301.452 303.526L223.055 348.323L223.054 348.322C213.154 354.031 200.529 356.725 188.205 356.72L188.204 356.719C175.87 356.715 163.232 354.011 153.32 348.288L69.0167 299.616C59.5424 294.145 53.4475 286.347 52.9546 277.393L52.9492 277.321L52.9438 277.234L52.817 147.67C52.3994 137.942 58.6675 129.332 68.8502 123.453L75.5381 119.592L75.5399 119.59L147.376 78.3285L153.996 74.507C163.909 68.784 176.552 66.0817 188.892 66.0816ZM324.131 145.316L321.54 145.605H321.686L324.143 145.457C324.141 145.431 324.139 145.404 324.137 145.376C324.136 145.366 324.136 145.355 324.135 145.345L324.134 145.337C324.133 145.33 324.134 145.322 324.133 145.316H324.131Z" fill="#573722"/>
<path d="M324.141 145.381C324.141 145.385 324.142 145.4 324.144 145.419C324.144 145.422 324.144 145.427 324.145 145.433C324.144 145.421 324.143 145.41 324.142 145.397L324.141 145.386L324.14 145.376L324.141 145.381Z" fill="#573722"/>
<path fill-rule="evenodd" clip-rule="evenodd" d="M318.593 145.734C318.961 152.71 314.535 159.756 305.311 165.082L298.691 168.903L150.157 83.1469V212.94L298.691 298.696L305.311 294.875C314.535 289.55 318.961 282.504 318.593 275.527V145.734Z" fill="#FFBB8D"/>
<path d="M156.777 79.3252C174.514 69.0847 203.271 69.0847 221.008 79.3252L305.312 127.998C323.048 138.238 323.048 154.841 305.312 165.082L298.691 168.903L150.157 83.1471L156.777 79.3252Z" fill="#FFD4B5"/>
<path fill-rule="evenodd" clip-rule="evenodd" d="M270.856 172.219C271.225 179.196 266.797 186.242 257.574 191.566L234.353 204.973L117.934 137.758C109.42 132.843 104.994 126.462 104.653 120.022V249.815C104.994 256.255 109.42 262.636 117.934 267.552L234.353 334.766L257.574 321.359C266.797 316.035 271.225 308.989 270.856 302.013V172.219Z" fill="#EF7830"/>
<path d="M141.155 87.2679L257.574 154.482C275.311 164.723 275.311 181.326 257.574 191.566L234.353 204.973L117.934 137.758C100.197 127.517 100.197 110.915 117.934 100.674L141.155 87.2679Z" fill="#FF8D43"/>
<path fill-rule="evenodd" clip-rule="evenodd" d="M226.778 209.958L220.166 213.775C202.449 224.004 173.708 223.994 155.972 213.754L71.6683 165.082C63.1548 160.166 58.7242 153.787 58.3774 147.35L58.5063 277.069C58.853 283.505 63.2846 289.884 71.7981 294.8L156.102 343.472C173.838 353.712 202.579 353.722 220.296 343.494L226.908 339.676L226.778 209.958Z" fill="#FFBB8D"/>
<path d="M78.2437 124.453L226.778 210.209L220.166 214.027C202.45 224.255 173.709 224.246 155.971 214.005L71.6688 165.333C53.9316 155.092 53.9149 138.499 71.6317 128.27L78.2437 124.453Z" fill="#FFD4B5"/>
<defs>
<radialGradient id="paint0_radial_52_249" cx="0" cy="0" r="1" gradientUnits="userSpaceOnUse" gradientTransform="translate(188.057 210.674) rotate(90) scale(214.159 214.159)">
<stop offset="0.600962" stop-color="#FFD4B5"/>
<stop offset="1" stop-color="#FFBB8D"/>
</radialGradient>
<linearGradient id="paint1_linear_52_249" x1="188.056" y1="-3.48479" x2="188.056" y2="424.834" gradientUnits="userSpaceOnUse">
<stop offset="0.397476" stop-color="#FFD4B5"/>
<stop offset="1" stop-color="#EF7830"/>
</linearGradient>
</defs>
</svg>
